<svg width="24" height="25" viewBox="0 0 24 25" fill="none" xmlns="http://www.w3.org/2000/svg">
<path d="M12 21.8182C11.69 21.8182 11.39 21.7782 11.14 21.6882C7.32 20.3782 1.25 15.7282 1.25 8.85819C1.25 5.35819 4.08 2.51819 7.56 2.51819C9.25 2.51819 10.83 3.17819 12 4.35819C13.17 3.17819 14.75 2.51819 16.44 2.51819C19.92 2.51819 22.75 5.36819 22.75 8.85819C22.75 15.7382 16.68 20.3782 12.86 21.6882C12.61 21.7782 12.31 21.8182 12 21.8182ZM7.56 4.01819C4.91 4.01819 2.75 6.18819 2.75 8.85819C2.75 15.6882 9.32 19.4882 11.63 20.2782C11.81 20.3382 12.2 20.3382 12.38 20.2782C14.68 19.4882 21.26 15.6982 21.26 8.85819C21.26 6.18819 19.1 4.01819 16.45 4.01819C14.93 4.01819 13.52 4.72819 12.61 5.95819C12.33 6.33819 11.69 6.33819 11.41 5.95819C10.48 4.71819 9.08 4.01819 7.56 4.01819Z" fill="#3A3A3A"/>
</svg>
