<svg width="25" height="25" viewBox="0 0 25 25" fill="none" xmlns="http://www.w3.org/2000/svg">
<path d="M9.63763 5.44617C10.9135 3.15824 11.5509 2.01428 12.5046 2.01428C13.4582 2.01428 14.0957 3.15824 15.3715 5.44617L15.7018 6.03829C16.0644 6.68881 16.2456 7.01408 16.5276 7.22857C16.8095 7.44306 17.162 7.52262 17.8669 7.68172L18.5074 7.82673C20.9846 8.38764 22.2222 8.66759 22.5173 9.61518C22.8113 10.5618 21.9674 11.5496 20.2787 13.5244L19.8416 14.0349C19.3623 14.5958 19.1216 14.8768 19.0139 15.2232C18.9061 15.5706 18.9424 15.9452 19.0149 16.6934L19.0814 17.3752C19.3361 20.0105 19.464 21.3277 18.6926 21.9128C17.9213 22.4988 16.7612 21.9641 14.4431 20.8967L13.8419 20.6208C13.1833 20.3167 12.854 20.1656 12.5046 20.1656C12.1552 20.1656 11.8259 20.3167 11.1663 20.6208L10.5671 20.8967C8.24796 21.9641 7.08789 22.4978 6.31752 21.9138C5.54515 21.3277 5.67304 20.0105 5.92781 17.3752L5.99428 16.6944C6.06678 15.9452 6.10303 15.5706 5.99428 15.2242C5.88753 14.8768 5.64686 14.5958 5.16752 14.0359L4.73048 13.5244C3.04173 11.5506 2.19785 10.5628 2.4919 9.61518C2.78695 8.66759 4.02557 8.38663 6.50281 7.82673L7.14327 7.68172C7.84717 7.52262 8.19862 7.44306 8.48159 7.22857C8.76355 7.01408 8.94481 6.68881 9.30733 6.03829L9.63763 5.44617Z" fill="#B5B5B5"/>
</svg>
