<svg width="25" height="25" viewBox="0 0 25 25" fill="none" xmlns="http://www.w3.org/2000/svg">
<path d="M9.62881 5.44617C10.9047 3.15824 11.5421 2.01428 12.4958 2.01428C13.4494 2.01428 14.0868 3.15824 15.3627 5.44617L15.693 6.03829C16.0555 6.68881 16.2368 7.01408 16.5188 7.22857C16.8007 7.44306 17.1532 7.52262 17.8581 7.68172L18.4985 7.82673C20.9758 8.38764 22.2134 8.66759 22.5084 9.61518C22.8025 10.5618 21.9586 11.5496 20.2699 13.5244L19.8328 14.0349C19.3535 14.5958 19.1128 14.8768 19.0051 15.2232C18.8973 15.5706 18.9336 15.9452 19.0061 16.6934L19.0725 17.3752C19.3273 20.0105 19.4552 21.3277 18.6838 21.9128C17.9125 22.4988 16.7524 21.9641 14.4343 20.8967L13.8331 20.6208C13.1745 20.3167 12.8452 20.1656 12.4958 20.1656C12.1463 20.1656 11.817 20.3167 11.1574 20.6208L10.5583 20.8967C8.23914 21.9641 7.07907 22.4978 6.30871 21.9138C5.53633 21.3277 5.66422 20.0105 5.91899 17.3752L5.98546 16.6944C6.05796 15.9452 6.09421 15.5706 5.98546 15.2242C5.87871 14.8768 5.63804 14.5958 5.1587 14.0359L4.72166 13.5244C3.03291 11.5506 2.18904 10.5628 2.48308 9.61518C2.77814 8.66759 4.01675 8.38663 6.49399 7.82673L7.13445 7.68172C7.83835 7.52262 8.1898 7.44306 8.47277 7.22857C8.75473 7.01408 8.93599 6.68881 9.29851 6.03829L9.62881 5.44617Z" fill="#FFD233"/>
</svg>
